PathFileType	4	(X/Y/Z)	C:/Users/opensim2020/Desktop/walking_exp_matlab/subject03_walking12_straight_04.trc																																																																																																																																														
DataRate	CameraRate	NumFrames	NumMarkers	Units	OrigDataRate	OrigDataStartFrame	OrigNumFrames																																																																																																																																										
100	100	4	48	mm	100	2221	202																																																																																																																																										
Frame#	Time	LFHD			RFHD			LBHD			RBHD			C7			T10			CLAV			STRN			RBAK			LSHO			LUPA			LELB			LFRM			LWRA			LWRB			LFIN			RSHO			RUPA			RELB			RFRM			RWRA			RWRB			RFIN			LASI			RASI			LPSI			RPSI			LTHI			LKNE			LTIB			LANK			LHEE			LTOE			RTHI			RKNE			RTIB			RANK			RHEE			RTOE			*39			*40			*41			*42			*43			*44			*45			*46			*47		
		X1	Y1	Z1	X2	Y2	Z2	X3	Y3	Z3	X4	Y4	Z4	X5	Y5	Z5	X6	Y6	Z6	X7	Y7	Z7	X8	Y8	Z8	X9	Y9	Z9	X10	Y10	Z10	X11	Y11	Z11	X12	Y12	Z12	X13	Y13	Z13	X14	Y14	Z14	X15	Y15	Z15	X16	Y16	Z16	X17	Y17	Z17	X18	Y18	Z18	X19	Y19	Z19	X20	Y20	Z20	X21	Y21	Z21	X22	Y22	Z22	X23	Y23	Z23	X24	Y24	Z24	X25	Y25	Z25	X26	Y26	Z26	X27	Y27	Z27	X28	Y28	Z28	X29	Y29	Z29	X30	Y30	Z30	X31	Y31	Z31	X32	Y32	Z32	X33	Y33	Z33	X34	Y34	Z34	X35	Y35	Z35	X36	Y36	Z36	X37	Y37	Z37	X38	Y38	Z38	X39	Y39	Z39	X40	Y40	Z40	X41	Y41	Z41	X42	Y42	Z42	X43	Y43	Z43	X44	Y44	Z44	X45	Y45	Z45	X46	Y46	Z46	X47	Y47	Z47	X48	Y48	Z48
																																																																																																																																																	
76	0.75	-502.60074	1614.76929	-1493.61475	-530.48248	1620.58337	-1363.77075	-630.30109	1572.70898	-1514.03613	-652.05487	1578.11121	-1385.34497	-668.76007	1410.14038	-1456.08484	-697.77057	1095.75464	-1444.96423	-548.07971	1335.38708	-1435.8158	-500.87659	1171.28003	-1430.44275	-730.1001	1232.94385	-1360.46387	-567.94928	1367.80664	-1596.85742	-584.82196	1169.37439	-1667.68872	-594.87048	1046.22852	-1681.02368	-598.17651	915.67212	-1684.76807	-620.20691	794.91205	-1660.62292	-623.05957	807.46173	-1716.40002	-648.75525	723.07666	-1710.17029	-616.04688	1362.85693	-1285.04724	-591.88007	1142.86389	-1211.90027	-556.44958	1035.23572	-1202.99207	-501.47653	910.50293	-1208.51367	-442.41495	834.21954	-1249.63525	-472.12659	814.37726	-1209.35742	-423.62476	759.14709	-1222.50378	-516.72131	947.54779	-1549.55298	-546.08307	923.36578	-1313.89209	-684.99023	962.25818	-1517.33142	-698.9964	952.04633	-1368.68359	-527.92682	648.43091	-1609.63806	-494.61038	475.41156	-1567.97278	-544.51276	280.03064	-1579.8822	-574.86957	71.90601	-1543.63647	-619.56396	37.15879	-1511.48669	-426.50479	34.71452	-1503.66882	-580.32251	620.66589	-1283.73889	-536.36426	446.26773	-1304.91553	-686.44116	333.76672	-1316.63074	-859.46747	213.51489	-1372.01843	-905.40863	229.67253	-1429.79578	-817.61658	78.52647	-1382.26233	NaN	NaN	NaN	NaN	NaN	NaN	NaN	NaN	NaN	NaN	NaN	NaN	NaN	NaN	NaN	NaN	NaN	NaN	NaN	NaN	NaN	NaN	NaN	NaN	NaN	NaN	NaN
77	0.76	-488.73935	1616.18445	-1493.39868	-516.6795	1622.00012	-1363.53479	-615.6015	1574.125	-1512.96655	-638.46362	1579.97363	-1385.24109	-655.27698	1411.83203	-1456.2887	-684.25116	1097.41711	-1446.08423	-534.76648	1337.10657	-1435.6134	-487.56384	1172.96375	-1430.32166	-717.302	1234.34106	-1361.63513	-554.18201	1369.75378	-1596.87671	-567.24921	1171.07141	-1668.151	-575.28009	1047.96887	-1681.95837	-575.06128	917.22186	-1685.68347	-593.82629	796.15527	-1661.98975	-596.92615	808.68512	-1717.71948	-614.99225	723.31653	-1712.047	-603.71826	1364.28748	-1285.14783	-581.68842	1143.68091	-1212.38757	-547.12677	1035.75793	-1203.31128	-494.42529	909.88745	-1208.27771	-436.63199	832.20282	-1248.82959	-466.98715	813.1748	-1208.58948	-419.85135	756.71857	-1221.3374	-503.08841	948.49109	-1550.40918	-531.94342	925.92798	-1314.67725	-671.35858	963.93042	-1518.28394	-685.63593	954.40558	-1369.6709	-518.19189	648.85907	-1609.29285	-489.41379	474.81943	-1567.72986	-541.93994	280.05701	-1579.63892	-574.5462	72.17828	-1543.51257	-619.47809	37.60126	-1511.39221	-426.31616	34.64925	-1503.47656	-560.32953	623.04523	-1285.1925	-512.08356	450.19174	-1305.21191	-659.37109	334.18073	-1317.63965	-828.78741	209.10452	-1373.86487	-876.0849	223.17632	-1431.14417	-779.56836	76.63575	-1384.81836	NaN	NaN	NaN	NaN	NaN	NaN	NaN	NaN	NaN	NaN	NaN	NaN	NaN	NaN	NaN	NaN	NaN	NaN	NaN	NaN	NaN	NaN	NaN	NaN	NaN	NaN	NaN
78	0.77	-475.03406	1617.54419	-1493.0575	-503.03842	1623.32202	-1363.17163	-601.85187	1575.84619	-1512.72253	-624.83075	1581.65198	-1384.99829	-641.76532	1413.40735	-1456.45715	-670.80682	1098.96448	-1447.27686	-521.46368	1338.61292	-1435.37646	-474.25226	1174.5083	-1430.36633	-704.4469	1235.80188	-1362.53101	-540.73773	1371.52551	-1596.81018	-550.40393	1172.90771	-1668.26416	-555.25684	1049.79407	-1682.48926	-551.63025	919.13702	-1686.65088	-566.78424	797.71729	-1663.07935	-570.34735	810.18542	-1718.68665	-580.64777	724.53241	-1713.50098	-591.49268	1365.58313	-1285.14099	-571.60107	1144.54993	-1212.84985	-538.1145	1036.30359	-1203.54626	-487.64902	909.35858	-1207.97717	-431.20035	830.29205	-1247.8728	-462.29065	812.07581	-1207.75684	-416.19653	754.49048	-1220.00171	-489.80338	949.20282	-1551.24475	-518.56964	928.57806	-1315.54102	-657.87885	965.4494	-1519.19116	-672.34296	956.85101	-1370.57605	-508.97095	648.68256	-1608.63904	-484.4606	474.30176	-1567.35388	-539.58685	280.20276	-1579.42371	-574.11884	72.56248	-1543.34473	-619.40271	38.21971	-1511.30322	-426.07971	34.56491	-1503.46667	-540.66412	625.76263	-1285.82983	-488.41394	454.16528	-1305.60474	-632.04449	333.7312	-1318.76709	-797.16925	202.92107	-1375.24988	-845.79053	214.71501	-1432.34265	-740.18298	74.03611	-1387.19885	NaN	NaN	NaN	NaN	NaN	NaN	NaN	NaN	NaN	NaN	NaN	NaN	NaN	NaN	NaN	NaN	NaN	NaN	NaN	NaN	NaN	NaN	NaN	NaN	NaN	NaN	NaN
79	0.78	-461.28372	1618.83667	-1492.69006	-489.43484	1624.5177	-1362.75085	-588.24011	1577.52991	-1512.51428	-611.22668	1583.13464	-1384.72168	-628.43958	1414.88879	-1456.70251	-657.43103	1100.4054	-1448.42407	-508.13373	1340.09998	-1435.21631	-461.10794	1175.95667	-1430.51599	-691.63574	1237.2345	-1363.37378	-527.29077	1373.27393	-1596.73145	-533.93274	1174.85986	-1668.50134	-535.50696	1051.80896	-1683.12561	-528.00732	921.26147	-1687.29126	-539.1748	799.69269	-1663.82031	-543.30182	812.06134	-1719.30396	-545.96442	726.8335	-1714.64209	-579.18878	1366.86877	-1285.255	-561.51764	1145.4729	-1213.22461	-529.24353	1036.83411	-1203.81799	-481.2121	908.91815	-1207.5481	-426.23843	828.49866	-1246.80725	-457.85751	811.02966	-1206.72424	-413.10718	752.46307	-1218.46606	-476.72244	949.85254	-1552.13916	-505.28839	931.17151	-1316.44653	-644.50427	966.84003	-1519.91504	-659.00604	959.13251	-1371.30933	-499.46063	648.74786	-1608.47632	-479.66376	473.70093	-1567.02209	-537.30255	280.40942	-1579.18335	-573.86926	72.97846	-1543.13867	-619.26593	38.87135	-1511.12329	-425.89941	34.47514	-1503.44971	-521.42145	628.55402	-1286.15771	-465.40073	458.30948	-1306.03125	-604.66827	332.68115	-1319.78137	-764.81525	195.64793	-1376.56726	-814.40674	204.60849	-1433.40881	-699.76971	70.85117	-1389.1925	NaN	NaN	NaN	NaN	NaN	NaN	NaN	NaN	NaN	NaN	NaN	NaN	NaN	NaN	NaN	NaN	NaN	NaN	NaN	NaN	NaN	NaN	NaN	NaN	NaN	NaN	NaN
